<!DOCTYPE svg PUBLIC "-//W3C//DTD SVG 20010904//EN" "http://www.w3.org/TR/2001/REC-SVG-20010904/DTD/svg10.dtd">
<svg version="1.0" xmlns="http://www.w3.org/2000/svg" width="637px" height="755px" viewBox="0 0 6370 7550" preserveAspectRatio="xMidYMid meet">
<g id="layer101" fill="#000000" stroke="none">
 <path d="M2146 5339 c-564 -567 -1026 -1033 -1026 -1037 0 -4 466 -258 1035 -566 716 -386 1040 -556 1052 -552 41 16 2043 1101 2043 1107 0 10 -2060 2079 -2070 2079 -4 0 -469 -464 -1034 -1031z m1115 216 c84 -30 149 -122 149 -210 0 -59 -30 -123 -75 -163 -97 -85 -216 -82 -305 8 -90 89 -93 208 -8 305 61 69 150 91 239 60z m0 -810 c84 -30 149 -122 149 -210 0 -59 -30 -123 -75 -163 -97 -85 -216 -82 -305 8 -90 89 -93 208 -8 305 61 69 150 91 239 60z"/>
 <path d="M527 3717 c-290 -287 -528 -527 -527 -533 0 -6 239 -246 530 -534 l530 -522 0 1056 c0 581 -1 1056 -2 1056 -2 -1 -241 -236 -531 -523z"/>
 <path d="M5330 3179 l0 -1034 520 520 c286 286 520 520 520 521 0 1 -234 232 -520 514 l-520 512 0 -1033z"/>
 <path d="M2166 2379 c-566 -170 -1031 -311 -1034 -314 -7 -6 607 -630 1392 -1415 l656 -655 1035 1035 c569 569 1031 1037 1027 1041 -5 4 -1629 493 -2007 604 -38 11 -81 0 -1069 -296z"/>
 </g>
<g id="layer102" fill="#ffffff" stroke="none">
 <path d="M2795 6983 c-73 -38 -112 -99 -121 -191 -12 -113 40 -218 129 -261 48 -23 172 -30 208 -11 25 14 28 76 3 66 -85 -33 -154 -27 -209 16 -63 49 -84 172 -44 254 41 86 138 112 252 68 14 -5 17 0 17 24 0 25 -6 32 -31 41 -48 16 -169 13 -204 -6z"/>
 <path d="M3580 6991 c-20 -5 -26 -14 -28 -44 -4 -41 -2 -43 36 -23 77 39 173 24 186 -30 10 -39 -17 -71 -99 -115 -91 -50 -116 -76 -122 -130 -9 -88 54 -139 170 -139 87 0 97 5 97 47 0 30 -3 34 -17 28 -59 -25 -101 -28 -139 -9 -22 10 -41 27 -42 37 -9 46 8 66 95 114 95 53 123 86 123 145 0 88 -54 129 -167 127 -37 -1 -79 -4 -93 -8z"/>
 <path d="M3992 6980 c-61 -38 -72 -81 -72 -282 l0 -178 30 0 30 0 0 153 c0 83 5 168 10 188 20 72 94 106 160 72 55 -28 60 -48 60 -240 l0 -173 36 0 36 0 -4 178 c-3 195 -14 234 -71 276 -43 31 -170 35 -215 6z"/>
 <path d="M1560 6755 l0 -235 98 0 c110 0 137 10 165 58 25 42 16 95 -22 133 l-28 28 26 11 c80 33 79 171 -1 220 -27 17 -50 20 -135 20 l-103 0 0 -235z m179 174 c47 -17 66 -72 41 -119 -11 -21 -67 -40 -117 -40 l-33 0 0 85 0 85 39 0 c21 0 52 -5 70 -11z m-23 -219 c35 -14 53 -38 54 -71 0 -37 -32 -61 -90 -67 l-50 -5 0 77 0 76 29 0 c16 0 42 -5 57 -10z"/>
 <path d="M1950 6755 l0 -235 30 0 30 0 0 210 0 210 95 0 c95 0 95 0 95 25 l0 25 -125 0 -125 0 0 -235z"/>
 <path d="M2230 6983 c0 -3 39 -109 88 -235 l87 -229 34 3 35 3 83 215 c46 118 85 223 89 233 4 14 -1 17 -29 17 -34 0 -36 -2 -59 -62 l-24 -63 -96 -3 -96 -3 -22 66 c-21 63 -23 65 -56 65 -19 0 -34 -3 -34 -7z m280 -177 c0 -4 -46 -133 -66 -186 -7 -17 -7 -16 -54 113 l-29 77 75 0 c41 0 74 -2 74 -4z"/>
 <path d="M3090 6981 c0 -4 20 -54 45 -111 25 -57 45 -110 45 -119 0 -9 -20 -61 -45 -115 -25 -55 -45 -103 -45 -108 0 -4 92 -8 205 -8 113 0 205 3 205 6 0 3 -38 55 -85 115 l-84 110 84 115 c47 63 85 116 85 119 0 3 -92 5 -205 5 -113 0 -205 -4 -205 -9z"/>
 <path d="M4390 6755 l0 -235 30 0 30 0 0 235 0 235 -30 0 -30 0 0 -235z"/>
 <path d="M4650 6780 l0 -210 -70 0 c-68 0 -70 -1 -70 -25 l0 -25 170 0 170 0 0 25 c0 24 -2 25 -70 25 l-70 0 0 210 0 210 -30 0 -30 0 0 -210z"/>
 <path d="M3103 5553 c-26 -9 -58 -32 -81 -58 -85 -97 -82 -216 8 -305 89 -90 208 -93 305 -8 95 84 99 232 7 321 -64 63 -152 81 -239 50z"/>
 <path d="M3103 4743 c-26 -9 -58 -32 -81 -58 -85 -97 -82 -216 8 -305 89 -90 208 -93 305 -8 95 84 99 232 7 321 -64 63 -152 81 -239 50z"/>
 <path d="M1082 4267 l-22 -23 0 -1065 0 -1065 28 -26 27 -25 1030 309 c567 170 1039 310 1050 310 11 0 470 -135 1020 -300 550 -165 1010 -302 1022 -304 14 -2 34 9 57 31 l36 35 0 1036 0 1036 -33 32 c-18 18 -38 32 -44 32 -6 0 -453 -239 -994 -531 -541 -292 -1003 -541 -1026 -552 l-41 -20 -1031 556 c-567 307 -1037 557 -1044 557 -8 0 -23 -10 -35 -23z"/>
 </g>

</svg>